<svg xmlns="http://www.w3.org/2000/svg" width="1045.274" height="245.931" viewBox="0 0 276.562 65.069"  fill="#ff000d">
  <path d="M276.562 0l-5.569.072-5.569.071-3.458 8.268c-1.901 4.548-3.537 8.269-3.633 8.269-.097 0-1.615-3.721-3.373-8.269L251.762.143l-5.446-.072c-2.996-.039-5.447.002-5.447.09 0 .09 2.626 6.943 5.836 15.229 3.291 8.496 5.772 15.264 5.69 15.52-.081.25-2.99 6.943-6.466 14.874-3.475 7.93-6.23 14.454-6.124 14.495.496.193 10.628 1.265 10.704 1.133.048-.083 1.662-3.841 3.586-8.352 1.925-4.511 3.576-8.286 3.67-8.389.095-.102 1.79 4.005 3.766 9.128l3.594 9.315 5.665.962c3.116.529 5.694.975 5.728.992.085.041-.219-.77-6.958-18.564l-5.889-15.552 5.154-12.362c2.835-6.799 5.736-13.763 6.446-15.476zM0 .01v64.983l4.564-.626c2.51-.345 4.832-.681 5.159-.747l.595-.118.014-17.656.014-17.656 1.392 3.968c.766 2.183 3.33 9.694 5.698 16.691 2.369 6.997 4.392 12.86 4.496 13.03.142.23 1.494.141 5.335-.35 2.83-.362 5.293-.658 5.475-.66.262-.003.33-6.266.33-30.43V.012h-10.05l-.068 18.495-.067 18.495-6.615-18.494L9.658.015 4.83.013zm42.862 0v60.085l.86-.139c.473-.076 6.396-.563 13.163-1.081s12.69-1.003 13.163-1.076l.86-.133V48.165h-1.426c-1.31 0-6.075.26-13.59.743l-2.976.19v-15.22h13.759V23.597l-6.88.154-6.879.155V10.065H70.91V.011H56.886zm70.741 0v10.055h10.584v46.831h10.054V10.065h10.583V.011h-15.61zm37.836 0v56.357h10.054V33.348h13.758V23.03h-13.758V10.066h18.256V.011h-14.155zm34.658 0l.067 28.51.068 28.509 8.202.324c4.51.178 9.69.429 11.509.557 1.819.128 4.293.25 5.496.27l2.189.04-.072-4.962-.072-4.96-5.953-.33c-3.275-.18-7.174-.4-8.666-.488l-2.712-.16V.011h-5.028zm35.986 0v58.96l1.653.149c.91.081 2.904.252 4.432.38 1.528.126 3.046.247 3.373.268l.596.04V.01h-5.027zM86.056.763l-9.223 57.303c3.869-.226 7.752-.429 11.648-.61l.466-6.012h9.382l.433 5.589c3.81-.137 7.63-.252 11.46-.347L101.22.762zm7.584 20.742l3.386 19.69H90.25z"/>
</svg>