<?xml version="1.0" encoding="UTF-8"?>
<svg width="276.56mm" fill="#ff000d" height="65.069mm" version="1.1" viewBox="0 0 276.56 65.069" xmlns="http://www.w3.org/2000/svg" xmlns:cc="http://creativecommons.org/ns#" xmlns:dc="http://purl.org/dc/elements/1.1/" xmlns:rdf="http://www.w3.org/1999/02/22-rdf-syntax-ns#">
<metadata>
<rdf:RDF>
<cc:Work rdf:about="">
<dc:format>image/svg+xml</dc:format>
<dc:type rdf:resource="http://purl.org/dc/dcmitype/StillImage"/>
<dc:title/>
</cc:Work>
</rdf:RDF>
</metadata>
<g transform="translate(594.63 143.88)">
<path transform="scale(.26458)" d="m-1202.2-543.81-21.047 0.27148-21.049 0.26954-13.068 31.25c-7.1883 17.187-13.368 31.25-13.734 31.25s-6.1026-14.063-12.748-31.25l-12.084-31.25-20.586-0.27149c-11.322-0.1485-20.586 5e-3 -20.586 0.3418 0 0.33645 9.9253 26.237 22.057 57.555 12.439 32.112 21.817 57.69 21.504 58.658-0.3051 0.94439-11.302 26.242-24.436 56.217-13.134 29.975-23.55 54.628-23.146 54.785 1.8765 0.72945 40.168 4.7815 40.457 4.2812 0.1803-0.3123 6.2792-14.516 13.553-31.566 7.2734-17.05 13.516-31.317 13.873-31.705 0.3573-0.38797 6.7623 15.137 14.232 34.5l13.582 35.205 21.412 3.6348c11.777 1.9995 21.519 3.6869 21.648 3.75 0.3205 0.15549-0.8272-2.9072-26.297-70.164l-22.258-58.777 19.48-46.723c10.715-25.697 21.678-52.019 24.361-58.492zm-1045.3 0.041v245.6l17.25-2.3691c9.4875-1.3029 18.262-2.5728 19.5-2.8203l2.25-0.44922 0.053-66.73 0.051-66.732 5.2617 15c2.8941 8.25 12.586 36.638 21.537 63.084 8.9508 26.445 16.597 48.606 16.992 49.246 0.537 0.8688 5.6453 0.53321 20.162-1.3223 10.694-1.3668 20.006-2.4885 20.693-2.4961 0.9926-9e-3 1.25-23.682 1.25-115.01v-115h-37.986l-0.2559 69.902-0.2558 69.904-25-69.898-25-69.896-18.25-8e-3zm162 0v227.09l3.25-0.52539c1.7875-0.28872 24.175-2.1265 49.75-4.0859s47.962-3.7897 49.75-4.0664l3.25-0.5039v-35.908h-5.3907c-4.9529-1e-5 -22.957 0.9843-51.359 2.8066l-11.25 0.7207v-57.527h52v-38.857l-52 1.168v-52.311h68v-38h-53zm267.37 0v38h40v177h38v-177h40v-38h-59zm143 0v213h38v-87h52v-39h-52v-49h69v-38h-53.5zm130.99 0 0.5078 215.5 31 1.2246c17.05 0.67393 36.625 1.6228 43.5 2.1074 6.875 0.48457 16.224 0.94444 20.773 1.0234l8.2715 0.14454-0.2715-18.75-0.2734-18.75-22.5-1.2422c-12.375-0.68338-27.112-1.5154-32.75-1.8477l-10.25-0.60351v-178.81h-19.004zm136.01 0v222.84l6.25 0.56055c3.4375 0.30844 10.975 0.95423 16.75 1.4336s11.512 0.9367 12.75 1.0176l2.25 0.14844v-226h-19zm-514.12 2.8398-34.859 216.58c14.624-0.85367 29.301-1.6202 44.025-2.3027l1.7617-22.725h35.459l1.6368 21.121c14.4-0.51822 28.84-0.95174 43.31-1.3086l-34.02-211.36zm28.664 78.393 12.797 74.424h-25.609z"/>
</g>
</svg>
